<?xml version="1.0" encoding="UTF-8"?>
<svg xmlns="http://www.w3.org/2000/svg" xmlns:xlink="http://www.w3.org/1999/xlink" viewBox="0 0 90 90" width="90px" height="90px">
<g id="surface16312305">
<path style=" stroke:none;fill-rule:nonzero;fill:rgb(0%,0%,0%);fill-opacity:1;" d="M 43.925781 16.199219 C 32.042969 16.199219 20.882812 17.101562 14.941406 18.359375 C 10.984375 19.257812 7.558594 21.957031 6.839844 26.101562 C 6.125 30.417969 5.398438 36.898438 5.398438 45 C 5.398438 53.101562 6.117188 59.398438 7.015625 63.898438 C 7.742188 67.859375 11.160156 70.742188 15.117188 71.640625 C 21.425781 72.898438 32.21875 73.800781 44.101562 73.800781 C 55.984375 73.800781 66.777344 72.898438 73.074219 71.640625 C 77.042969 70.742188 80.457031 68.042969 81.175781 63.898438 C 81.898438 59.398438 82.800781 52.925781 82.976562 44.824219 C 82.976562 36.722656 82.074219 30.242188 81.175781 25.742188 C 80.457031 21.78125 77.042969 18.898438 73.074219 18 C 66.777344 17.101562 55.800781 16.199219 43.925781 16.199219 Z M 43.925781 19.800781 C 56.882812 19.800781 67.316406 20.875 72.359375 21.777344 C 75.058594 22.5 77.21875 24.300781 77.574219 26.640625 C 78.660156 32.398438 79.375 38.523438 79.375 44.824219 C 79.199219 52.558594 78.300781 58.859375 77.574219 63.359375 C 77.042969 66.777344 73.441406 67.859375 72.359375 68.222656 C 65.875 69.484375 55.074219 70.375 44.277344 70.375 C 33.476562 70.375 22.5 69.660156 16.199219 68.222656 C 13.5 67.5 11.339844 65.699219 10.984375 63.359375 C 9.542969 58.316406 9 51.660156 9 45 C 9 36.71875 9.722656 30.601562 10.441406 26.824219 C 10.984375 23.398438 14.757812 22.316406 15.660156 21.957031 C 21.601562 20.699219 32.582031 19.800781 43.925781 19.800781 Z M 34.199219 30.601562 L 34.199219 59.398438 L 59.398438 45 Z M 37.800781 36.722656 L 52.199219 45 L 37.800781 53.277344 Z M 37.800781 36.722656 "/>
</g>
</svg>
